<svg xmlns="http://www.w3.org/2000/svg" viewBox="0 0 1600 430" role="img" aria-label="Welcome to Hard Commerce Lab">
  <rect width="1600" height="430" fill="#263f46"/>
  <path d="M0 328c185-62 365-78 540-48 178 31 310 92 495 82 210-11 358-78 565-46v114H0z" fill="#5d7f71"/>
  <circle cx="1310" cy="110" r="70" fill="#f1b45b"/>
  <g transform="translate(1110 178)" fill="none" stroke="#f7f3ea" stroke-width="13" stroke-linecap="round" stroke-linejoin="round">
    <path d="M0 130h250V16H0z"/>
    <path d="M48 16v-54h155v54M92-38v-48h68v48"/>
    <path d="M55 130V58h58v72M142 130V58h71v72"/>
    <path d="M25 39h42M184 39h42"/>
  </g>
  <text x="90" y="160" fill="#f7f3ea" font-family="Arial, Helvetica, sans-serif" font-size="72" font-weight="700">Welcome to</text>
  <text x="90" y="252" fill="#f7f3ea" font-family="Arial, Helvetica, sans-serif" font-size="96" font-weight="700">Hard Commerce Lab</text>
  <text x="94" y="330" fill="#f1b45b" font-family="Arial, Helvetica, sans-serif" font-size="42">The most questionable procurement desk online.</text>
</svg>
